<svg xmlns="http://www.w3.org/2000/svg" viewBox="0 0 1000 1000"><defs><style>.cls-1{fill:none;}.cls-2{fill:#fff;}</style></defs><title>Logo white</title><g id="Calque_2" data-name="Calque 2"><g id="Calque_1-2" data-name="Calque 1"><rect class="cls-1" width="1000" height="1000"/><polygon class="cls-2" points="325.08 363.82 325.08 462.95 234.32 462.95 234.32 363.82 165.8 363.82 165.8 636.17 234.32 636.17 234.32 524.01 325.08 524.01 325.08 636.17 393.6 636.17 393.6 363.82 325.08 363.82"/><path class="cls-2" d="M462.16,413.36c-13.39-14.24-13.39-49.54-13.39-49.54h62.56s0,35.3-13.39,49.54Zm0,24.79L448.77,609.4l31.28,26.78,31.28-26.78L497.94,438.15Z"/><path class="cls-2" d="M603.47,479.14q19-19.77,51.11-18.65V436.66q-52.79-.36-71.88,48.61H582v-46H560.54V636.18h23.07v-105Q584,499.48,603.47,479.14Z"/><path class="cls-2" d="M833.26,571.41H810.19q-5.25,22.61-19.72,36.24-14.84,14.21-40.34,14.2-32.93-.75-47.75-26a94.08,94.08,0,0,1-15.2-51.75H834q2.24-43.39-18.22-76.18-19.83-33.52-65.63-34.27-45.09.75-65.46,32.42Q664.12,497,664.12,537.82q0,43,20.55,72.83c.33.5.67,1,1,1.47a57.41,57.41,0,0,0,47,24.06h37A57.52,57.52,0,0,0,813,616.87Q827.94,599.89,833.26,571.41ZM706,475.22q15.56-21.06,44.13-21.44,28.39.38,44.5,21.44,15.55,20.13,16.28,48.83H687.18Q690.08,496.09,706,475.22Z"/></g></g></svg>